<svg width="91" height="40" viewBox="0 0 91 40" fill="none" xmlns="http://www.w3.org/2000/svg">
<path d="M84.287 12.572H78.2021V27.4722H81.3917V23.2517H84.287C88.1698 23.2517 90.5823 21.1934 90.5823 17.9045C90.5823 14.6155 88.1707 12.572 84.287 12.572ZM84.2187 20.7706H81.3917V15.0531H84.2187C86.2621 15.0531 87.3879 16.0683 87.3879 17.9118C87.3879 19.7554 86.263 20.7706 84.2187 20.7706Z" fill="white"/>
<path d="M71.8959 15.0531L75.235 12.572H64.0586V27.4722H75.235V24.9912H67.2481V21.177H74.0604V18.696H67.2481V15.0531H71.8959Z" fill="white"/>
<path d="M55.6147 18.3805H51.7335V15.0531H57.9297L61.2688 12.572H48.5439V27.4722H55.2034C58.9384 27.4722 61.081 25.7663 61.081 22.7912C61.081 19.9472 59.1392 18.3805 55.6147 18.3805ZM55.0596 24.9912H51.7335V20.8607H55.0596C57.0843 20.8607 58.0272 21.5515 58.0272 22.9256C58.0264 24.33 57.0282 24.9912 55.0596 24.9912Z" fill="white"/>
<path d="M43.0717 24.2461C42.254 24.7008 41.3014 24.9417 40.3187 24.9417C37.4429 24.9417 35.3564 22.8728 35.3564 20.0222C35.3564 17.1716 37.4437 15.1027 40.3187 15.1027C41.4062 15.1027 42.3816 15.4108 43.2196 16.018L45.5069 14.3186L45.3557 14.1851C44.0203 13.0019 42.2353 12.3767 40.1951 12.3767C37.9818 12.3767 35.9725 13.1289 34.5387 14.4956C33.0959 15.8697 32.3018 17.8034 32.3018 19.9403C32.3018 22.087 33.0934 24.0494 34.5305 25.4653C35.9725 26.8861 37.9769 27.6686 40.1748 27.6686C42.4743 27.6686 44.4819 26.8607 45.8426 25.3899C44.7924 24.6099 43.7788 23.8569 43.7788 23.8569L43.0717 24.2461Z" fill="white"/>
<path d="M12.7294 29.4697C12.5706 29.4697 12.4133 29.4656 12.256 29.4575L12.1143 32.2983C12.318 32.3081 12.5233 32.3138 12.7294 32.3138C16.1296 32.3138 19.2079 30.9357 21.4356 28.7069L19.4214 26.6924C17.7071 28.407 15.3401 29.4697 12.7294 29.4697Z" fill="white"/>
<path d="M3.26359 20.0003C3.26359 19.8414 3.26766 19.6841 3.27581 19.5268L0.435403 19.385C0.425626 19.5887 0.419922 19.7941 0.419922 20.0003C0.419922 23.401 1.79775 26.4798 4.02624 28.7079L6.04043 26.6934C4.32527 24.9787 3.26359 22.6113 3.26359 20.0003Z" fill="white"/>
<path d="M12.7304 29.4704C9.95034 29.4704 7.44645 28.2659 5.71255 26.3508L3.60059 28.2619C5.85351 30.7507 9.10946 32.3145 12.7304 32.3145V29.4704Z" fill="white"/>
<path d="M25.0485 20C25.0485 19.247 24.9809 18.5095 24.8513 17.7939L22.2008 19.7473C22.2032 19.8313 22.204 19.9152 22.204 20C22.204 22.7805 20.9997 25.2848 19.085 27.019L20.9957 29.1313C23.4849 26.8788 25.0485 23.6224 25.0485 20Z" fill="white"/>
<path d="M12.7306 10.5302C12.8895 10.5302 13.0467 10.5359 13.204 10.5433L13.3458 7.70079C13.1421 7.69101 12.9367 7.6853 12.7306 7.6853C9.33042 7.6853 6.25209 9.06336 4.02441 11.2922L6.03861 13.3067C7.75295 11.5921 10.1208 10.5302 12.7306 10.5302Z" fill="white"/>
<path d="M22.4761 12.4712C23.0578 13.2226 23.5549 14.0432 23.9517 14.9193L12.7326 23.1884L8.0459 20.2497V16.7146L12.7326 19.6532L22.4761 12.4712Z" fill="white"/>
<path d="M6.38265 12.981L4.47194 10.8687C1.98353 13.1219 0.419922 16.3784 0.419922 20H3.2644C3.26359 17.2194 4.46787 14.7151 6.38265 12.981Z" fill="white"/>
<path d="M18.0692 12.1829L20.4639 10.4178C18.3503 8.70968 15.6607 7.6853 12.7314 7.6853V10.5302C14.7106 10.5302 16.5488 11.1406 18.0692 12.1829Z" fill="white"/>
</svg>
